<?xml version="1.0" encoding="UTF-8" standalone="no"?>
<svg
   width="44.66021mm"
   height="44.658634mm"
   viewBox="0 0 44.660213 44.658635"
   version="1.1"
   id="svg8"
   inkscape:export-filename="/Users/slobry/Downloads/IAPRLogo.png"
   inkscape:export-xdpi="250.02701"
   inkscape:export-ydpi="250.02701"
   inkscape:version="1.2 (dc2aeda, 2022-05-15)"
   sodipodi:docname="IAPRLogo.svg"
   xmlns:inkscape="http://www.inkscape.org/namespaces/inkscape"
   xmlns:sodipodi="http://sodipodi.sourceforge.net/DTD/sodipodi-0.dtd"
   xmlns="http://www.w3.org/2000/svg"
   xmlns:svg="http://www.w3.org/2000/svg"
   xmlns:rdf="http://www.w3.org/1999/02/22-rdf-syntax-ns#"
   xmlns:cc="http://creativecommons.org/ns#"
   xmlns:dc="http://purl.org/dc/elements/1.1/">
  <defs
     id="defs2">
    <clipPath
       clipPathUnits="userSpaceOnUse"
       id="clipPath968">
      <ellipse
         style="fill:none;fill-opacity:1;stroke:#000000;stroke-width:0.596196"
         id="ellipse970"
         cx="32.968342"
         cy="42.17226"
         rx="22.574257"
         ry="22.405466" />
    </clipPath>
  </defs>
  <sodipodi:namedview
     id="base"
     pagecolor="#ffffff"
     bordercolor="#666666"
     borderopacity="1.0"
     inkscape:pageopacity="0.0"
     inkscape:pageshadow="2"
     inkscape:zoom="1.1466564"
     inkscape:cx="-30.95958"
     inkscape:cy="230.23462"
     inkscape:document-units="mm"
     inkscape:current-layer="layer1"
     inkscape:document-rotation="0"
     showgrid="false"
     fit-margin-top="0"
     fit-margin-left="0"
     fit-margin-right="0"
     fit-margin-bottom="0"
     inkscape:window-width="1252"
     inkscape:window-height="762"
     inkscape:window-x="33"
     inkscape:window-y="38"
     inkscape:window-maximized="0"
     inkscape:showpageshadow="2"
     inkscape:pagecheckerboard="0"
     inkscape:deskcolor="#d1d1d1" />
  <metadata
     id="metadata5">
    <rdf:RDF>
      <cc:Work
         rdf:about="">
        <dc:format>image/svg+xml</dc:format>
        <dc:type
           rdf:resource="http://purl.org/dc/dcmitype/StillImage" />
      </cc:Work>
    </rdf:RDF>
  </metadata>
  <g
     inkscape:label="Layer 1"
     inkscape:groupmode="layer"
     id="layer1"
     transform="translate(-10.423776,-19.842943)">
    <g
       id="globe-2"
       transform="matrix(1.57615,0,0,1.57615,8.1273255,18.222661)"
       style="fill:#53bf23;fill-opacity:1">
      <polygon
         fill="#515151"
         points="13.179,6.288 13.179,6.315 13.195,6.295 "
         id="polygon848"
         style="fill:#53bf23;fill-opacity:1" />
      <path
         d="m 15.624,1.028 c -7.811,0 -14.167,6.355 -14.167,14.167 0,7.812 6.356,14.167 14.167,14.167 7.812,0 14.168,-6.354 14.168,-14.167 0,-7.812 -6.356,-14.167 -14.168,-14.167 z m 12.943,14.167 c 0,0.248 -0.022,0.49 -0.037,0.735 -0.091,-0.23 -0.229,-0.53 -0.262,-0.659 -0.048,-0.196 -0.341,-0.879 -0.341,-0.879 0,0 -0.293,-0.39 -0.488,-0.488 -0.194,-0.098 -0.341,-0.342 -0.683,-0.536 -0.342,-0.196 -0.487,-0.293 -0.779,-0.293 -0.294,0 -0.585,-0.391 -0.928,-0.586 -0.342,-0.194 -0.39,-0.097 -0.39,-0.097 0,0 0.39,0.585 0.39,0.731 0,0.146 0.438,0.39 0.879,0.292 0,0 0.292,0.537 0.438,0.683 0.146,0.146 -0.049,0.293 -0.341,0.488 -0.293,0.194 -0.244,0.146 -0.392,0.292 -0.146,0.146 -0.633,0.392 -0.78,0.488 -0.146,0.097 -0.731,0.39 -1.023,0.097 -0.143,-0.141 -0.099,-0.438 -0.195,-0.634 -0.098,-0.195 -1.122,-1.707 -1.61,-2.389 -0.085,-0.12 -0.293,-0.49 -0.438,-0.585 -0.146,-0.099 0.342,-0.099 0.342,-0.099 0,0 0,-0.342 -0.049,-0.585 -0.05,-0.244 0.049,-0.585 0.049,-0.585 0,0 -0.488,0.292 -0.636,0.39 -0.145,0.098 -0.292,-0.194 -0.486,-0.439 C 20.612,10.294 20.416,10 20.368,9.756 20.319,9.513 20.612,9.415 20.612,9.415 L 21.05,9.172 c 0,0 0.537,-0.097 0.879,-0.049 0.341,0.049 0.877,0.098 0.877,0.098 0,0 0.146,-0.342 -0.049,-0.488 -0.194,-0.146 -0.635,-0.39 -0.83,-0.341 -0.194,0.048 0.097,-0.244 0.34,-0.439 l -0.54,-0.098 c 0,0 -0.491,0.244 -0.638,0.293 -0.146,0.048 -0.4,0.146 -0.596,0.39 -0.194,0.244 0.078,0.585 -0.117,0.683 -0.194,0.098 -0.326,0.146 -0.473,0.194 -0.146,0.049 -0.61,0 -0.61,0 -0.504,0 -0.181,0.46 -0.05,0.623 L 18.853,9.562 18.564,8.88 c 0,0 -0.416,-0.292 -0.611,-0.389 C 17.758,8.393 17.157,8.052 17.157,8.052 l 0.042,0.439 0.565,0.572 0.05,0.013 0.294,0.39 -0.649,0.049 V 9.129 C 16.847,8.981 17.007,8.829 16.938,8.782 16.793,8.685 16.454,8.44 16.454,8.44 c 0,0 -0.574,0.098 -0.721,0.147 -0.147,0.049 -0.188,0.195 -0.479,0.292 -0.294,0.098 -0.426,0.244 -0.523,0.39 -0.097,0.146 -0.415,0.585 -0.608,0.78 -0.196,0.196 -0.558,0.146 -0.704,0.146 C 13.272,10.195 12.568,10 12.568,10 V 9.173 c 0,0 0.095,-0.464 0.047,-0.61 l 0.427,-0.072 0.713,-0.147 0.209,-0.147 0.3,-0.39 c 0,0 -0.337,-0.244 -0.094,-0.585 0.117,-0.164 0.538,-0.195 0.733,-0.341 0.194,-0.146 0.489,-0.244 0.489,-0.244 0,0 0.342,-0.292 0.683,-0.634 0,0 0.244,-0.147 0.536,-0.245 0,0 0.83,0.732 0.977,0.732 0.147,0 0.683,-0.341 0.683,-0.341 0,0 0.146,-0.438 0.098,-0.585 C 18.32,5.418 18.076,4.93 18.076,4.93 c 0,0 -0.146,0.244 -0.292,0.439 -0.146,0.195 -0.244,0.439 -0.244,0.439 0,0 -0.683,-0.047 -0.731,-0.193 C 16.759,5.468 16.663,5.227 16.613,5.082 16.566,4.935 16.175,4.94 15.884,5.038 15.59,5.136 15.931,4.512 15.931,4.512 c 0,0 0.294,-0.368 0.488,-0.368 0.194,0 0.635,-0.25 0.828,-0.298 0.196,-0.049 0.783,-0.272 1.025,-0.272 0.244,0 0.537,0.105 0.684,0.105 0.147,0 0.731,0 0.731,0 L 20.71,3.597 c 0,0 0.879,0.325 0.585,0.521 0,0 0.343,0.211 0.489,0.357 0.137,0.138 0.491,-0.127 0.694,-0.24 3.649,2.29 6.089,6.341 6.089,10.96 z M 5.296,7.563 c 0,0.195 -0.266,0.242 0,0.732 0.34,0.634 0.048,0.927 0.048,0.927 0,0 -0.83,0.585 -0.976,0.683 -0.146,0.098 -0.536,0.634 -0.293,0.487 0.244,-0.146 0.536,-0.292 0.293,0.098 -0.244,0.391 -0.683,1.024 -0.78,1.269 -0.097,0.245 -0.585,0.829 -0.585,1.122 0,0.293 -0.195,0.879 -0.146,1.123 0.033,0.17 -0.075,0.671 -0.16,0.877 C 2.763,12.139 3.686,9.612 5.21,7.545 5.26,7.55 5.296,7.563 5.296,7.563 Z M 6.863,5.693 C 8.056,4.592 9.454,3.714 10.996,3.12 10.844,3.315 10.66,3.515 10.66,3.515 c 0,0 -0.341,-0.001 -0.976,0.683 C 9.051,4.881 9.197,4.686 9.051,4.88 8.905,5.074 8.953,5.124 8.611,5.369 8.271,5.612 8.124,5.905 8.124,5.905 L 7.587,6.1 7.149,5.905 c 0,0 -0.392,0.147 -0.343,-0.049 C 6.82,5.804 6.841,5.75 6.863,5.693 Z M 12.709,6.831 12.515,6.539 12.709,6.1 13.179,6.288 V 5.417 l 0.449,-0.243 0.373,0.536 0.574,0.635 -0.381,0.292 -1.016,0.195 V 6.315 Z m 6.342,4.585 c 0.114,-0.09 0.487,0.146 0.487,0.146 0,0 1.219,0.244 1.414,0.39 0.196,0.147 0.537,0.245 0.635,0.392 0.098,0.146 0.438,0.585 0.486,0.731 0.05,0.146 0.294,0.684 0.343,0.878 0.049,0.195 0.195,0.683 0.341,0.927 0.146,0.245 0.976,1.317 1.268,1.805 l 0.88,-0.146 c 0,0 -0.099,0.438 -0.196,0.585 -0.097,0.146 -0.39,0.536 -0.536,0.731 -0.147,0.195 -0.341,0.488 -0.634,0.731 -0.292,0.243 -0.294,0.487 -0.439,0.683 -0.146,0.195 -0.342,0.634 -0.342,0.634 0,0 0.098,0.976 0.146,1.171 0.048,0.195 -0.341,0.731 -0.341,0.731 l -0.44,0.44 -0.588,0.779 0.048,0.731 c 0,0 -0.444,0.343 -0.689,0.537 -0.242,0.194 -0.204,0.341 -0.399,0.537 -0.194,0.194 -0.957,0.536 -1.152,0.585 -0.195,0.049 -1.271,0.195 -1.271,0.195 V 25.171 L 18.05,24.683 c 0,0 -0.148,-0.585 -0.295,-0.78 -0.147,-0.195 -0.083,-0.489 -0.327,-0.732 -0.244,-0.244 -0.334,-0.438 -0.383,-0.586 -0.049,-0.146 0.053,-0.584 0.053,-0.584 0,0 0.197,-0.537 0.294,-0.732 0.098,-0.195 0.001,-0.487 -0.097,-0.683 -0.098,-0.196 -0.145,-0.684 -0.145,-0.829 0,-0.146 -0.392,-0.391 -0.538,-0.537 -0.146,-0.146 -0.097,-0.342 -0.097,-0.535 0,-0.197 -0.146,-0.635 -0.098,-0.977 0.049,-0.341 -0.438,-0.098 -0.731,0 -0.293,0.098 -0.487,-0.098 -0.487,-0.391 0,-0.293 -0.536,-0.048 -0.878,0.146 -0.343,0.195 -0.732,0.195 -1.124,0.342 -0.389,0.146 -0.583,-0.146 -0.583,-0.146 0,0 -0.343,-0.292 -0.585,-0.439 -0.245,-0.146 -0.489,-0.438 -0.685,-0.682 -0.194,-0.245 -0.683,-0.977 -0.73,-1.268 -0.049,-0.294 0,-0.49 0,-0.831 0,-0.341 0,-0.536 0.048,-0.78 0.049,-0.244 0.195,-0.537 0.342,-0.781 0.146,-0.244 0.683,-0.536 0.828,-0.634 0.146,-0.097 0.488,-0.389 0.488,-0.585 0,-0.195 0.196,-0.292 0.292,-0.488 0.099,-0.195 0.44,-0.682 0.879,-0.487 0,0 0.389,-0.048 0.535,-0.097 0.146,-0.049 0.536,-0.194 0.729,-0.292 0.195,-0.098 0.681,-0.144 0.681,-0.144 0,0 0.384,0.153 0.53,0.153 0.146,0 0.622,-0.085 0.622,-0.085 0,0 0.22,0.707 0.22,0.854 0,0.147 0.146,0.292 0.391,0.39 0.241,0.099 1.364,0.344 1.852,-0.047 z m 5.609,9.561 c 0,0.146 -0.049,0.537 -0.098,0.732 -0.051,0.195 -0.147,0.537 -0.195,0.73 -0.049,0.196 -0.293,0.586 -0.438,0.684 -0.146,0.098 -0.391,0.391 -0.536,0.439 -0.146,0.049 -0.245,-0.342 -0.196,-0.537 0.05,-0.195 0.293,-0.731 0.293,-0.731 0,0 0.049,-0.292 0.097,-0.488 0.05,-0.194 0.635,-0.438 0.635,-0.438 l 0.391,-0.732 c -0.002,-10e-4 0.047,0.196 0.047,0.341 z M 3.015,18.071 c 0.063,0.016 0.153,0.062 0.28,0.175 0.184,0.16 0.293,0.242 0.537,0.341 0.243,0.099 0.341,0.243 0.634,0.39 0.293,0.147 0.196,0.05 0.585,0.488 0.391,0.438 0.342,0.438 0.439,0.683 0.097,0.245 0.244,0.487 0.342,0.635 0.098,0.146 0.39,0.243 0.536,0.341 0.146,0.098 0.39,0.195 0.536,0.195 0.147,0 0.586,0.439 0.83,0.487 0.244,0.05 0.244,0.538 0.244,0.538 l -0.244,0.682 -0.196,0.731 0.196,0.585 c 0,0 -0.294,0.245 -0.487,0.245 -0.18,0 -0.241,0.114 -0.438,0.06 C 4.949,22.91 3.6,20.638 3.015,18.071 Z"
         fill="#515151"
         id="path850"
         style="fill:#53bf23;fill-opacity:1" />
    </g>
    <text
       xml:space="preserve"
       style="font-style:normal;font-weight:normal;font-size:10.5833px;line-height:1.25;font-family:sans-serif;fill:#000000;fill-opacity:1;stroke:none;stroke-width:0.264583"
       x="-108.07133"
       y="106.52399"
       id="text996"><tspan
         sodipodi:role="line"
         id="tspan994"
         x="-108.07133"
         y="106.52399"
         style="stroke-width:0.264583" /></text>
  </g>
</svg>
